HIERARCHY
ROOT SpineBase
{
  OFFSET 0.000000 0.000000 0.000000
  CHANNELS 6 Xposition Yposition Zposition Zrotation Xrotation Yrotation
  JOINT SpineMid
  {
    OFFSET 0.000000 24.529944 0.000000
    CHANNELS 3 Zrotation Xrotation Yrotation
    JOINT SpineShoulder
    {
      OFFSET 0.054362 18.525321 -0.666699
      CHANNELS 3 Zrotation Xrotation Yrotation
      JOINT Neck
      {
        OFFSET 0.008699 6.182921 -0.482589
        CHANNELS 3 Zrotation Xrotation Yrotation
        JOINT Head
        {
          OFFSET 2.693924 12.471290 1.227539
          CHANNELS 3 Zrotation Xrotation Yrotation
          End Site
          {
            OFFSET 0 0 0
          }
        }
      }
      JOINT ShoulderLeft
      {
        OFFSET -13.450783 -2.351052 -7.723124
        CHANNELS 3 Zrotation Xrotation Yrotation
        JOINT ElbowLeft
        {
          OFFSET -11.134511 -20.958452 -2.870241
          CHANNELS 3 Zrotation Xrotation Yrotation
          JOINT WristLeft
          {
            OFFSET 4.855754 -6.997676 -21.505814
            CHANNELS 3 Zrotation Xrotation Yrotation
            JOINT HandLeft
            {
              OFFSET 0.957153 -4.042641 -2.529855
              CHANNELS 3 Zrotation Xrotation Yrotation
              JOINT HandTipLeft
              {
                OFFSET 1.904980 -5.843723 0.656232
                CHANNELS 3 Zrotation Xrotation Yrotation
                End Site
                {
                  OFFSET 0 0 0
                }
              }
              JOINT ThumbLeft
              {
                OFFSET -1.727366 -5.229603 1.897199
                CHANNELS 3 Zrotation Xrotation Yrotation
                End Site
                {
                  OFFSET 0 0 0
                }
              }
            }
          }
        }
      }
      JOINT ShoulderRight
      {
        OFFSET 14.796452 -5.626421 5.189202
        CHANNELS 3 Zrotation Xrotation Yrotation
        JOINT ElbowRight
        {
          OFFSET 5.064761 -25.265679 8.034237
          CHANNELS 3 Zrotation Xrotation Yrotation
          JOINT WristRight
          {
            OFFSET -2.188614 16.914118 -21.453100
            CHANNELS 3 Zrotation Xrotation Yrotation
            JOINT HandRight
            {
              OFFSET -3.244357 4.866639 -3.576818
              CHANNELS 3 Zrotation Xrotation Yrotation
              JOINT HandTipRight
              {
                OFFSET -0.534245 1.145339 -1.597566
                CHANNELS 3 Zrotation Xrotation Yrotation
                End Site
                {
                  OFFSET 0 0 0
                }
              }
              JOINT ThumbRight
              {
                OFFSET 0.823469 2.349216 -0.098060
                CHANNELS 3 Zrotation Xrotation Yrotation
                End Site
                {
                  OFFSET 0 0 0
                }
              }
            }
          }
        }
      }
    }
  }
  JOINT HipLeft
  {
    OFFSET -6.495631 1.273160 -5.412979
    CHANNELS 3 Zrotation Xrotation Yrotation
    JOINT KneeLeft
    {
      OFFSET 14.018551 -2.208469 -27.502141
      CHANNELS 3 Zrotation Xrotation Yrotation
      JOINT AnkleLeft
      {
        OFFSET 0.622781 -34.880009 -6.987360
        CHANNELS 3 Zrotation Xrotation Yrotation
        JOINT FootLeft
        {
          OFFSET 3.801772 -2.836915 -12.052038
          CHANNELS 3 Zrotation Xrotation Yrotation
          End Site
          {
            OFFSET 0 0 0
          }
        }
      }
    }
  }
  JOINT HipRight
  {
    OFFSET 6.242200 1.042558 -0.756196
    CHANNELS 3 Zrotation Xrotation Yrotation
    JOINT KneeRight
    {
      OFFSET 21.287459 -6.625166 -19.747578
      CHANNELS 3 Zrotation Xrotation Yrotation
      JOINT AnkleRight
      {
        OFFSET -1.948928 -31.382124 -4.072106
        CHANNELS 3 Zrotation Xrotation Yrotation
        JOINT FootRight
        {
          OFFSET -0.966583 -6.195757 -8.079165
          CHANNELS 3 Zrotation Xrotation Yrotation
          End Site
          {
            OFFSET 0 0 0
          }
        }
      }
    }
  }
}
MOTION
Frames: 5
Frame Time: 0.033333
14.099729 43.862657 373.276423 -0.000000 0.000000 -20.081746 0.000000 0.000000 20.081746 -0.000000 0.000000 0.000000 -0.000000 0.000000 0.000000 0.000000 0.000000 0.000000 -0.000000 0.000000 0.000000 -0.000000 0.000000 0.000000 -0.000000 0.000000 0.000000 -0.000000 0.000000 0.000000 0.000000 0.000000 0.000000 0.000000 0.000000 0.000000 -0.000000 0.000000 0.000000 -0.000000 0.000000 0.000000 -0.000000 0.000000 0.000000 -0.000000 0.000000 0.000000 0.000000 0.000000 0.000000 0.000000 0.000000 0.000000 0.000000 0.000000 20.081746 -0.000000 0.000000 0.000000 -0.000000 0.000000 0.000000 0.000000 0.000000 0.000000 0.000000 0.000000 20.081746 -0.000000 0.000000 0.000000 -0.000000 0.000000 0.000000 0.000000 0.000000 0.000000
14.096559 43.927423 373.261891 -0.042901 -0.034279 -19.845852 0.028715 0.046807 19.845827 -0.000000 0.000000 0.000000 -0.000000 0.000000 0.000000 0.000000 0.000000 0.000000 -0.000000 0.000000 0.000000 -0.000000 0.000000 0.000000 -2.237014 0.142861 1.442164 3.482906 -1.722835 -1.754675 0.000000 0.000000 0.000000 0.000000 0.000000 0.000000 -0.000000 0.000000 0.000000 0.438735 0.870209 0.671877 7.804358 6.470539 9.866746 -8.005212 0.629823 -7.837882 0.000000 0.000000 0.000000 0.000000 0.000000 0.000000 0.028715 0.046807 19.845827 -0.000000 0.000000 0.000000 -0.000000 0.000000 0.000000 0.000000 0.000000 0.000000 0.028715 0.046807 19.845827 -0.000000 0.000000 0.000000 2.075695 4.438785 -3.320839 0.000000 0.000000 0.000000
14.112793 43.992870 373.253216 -0.059364 -0.073192 -19.648025 0.031298 0.088891 19.647963 -0.000000 0.000000 0.000000 -0.000000 0.000000 0.000000 0.000000 0.000000 0.000000 -0.000000 0.000000 0.000000 -0.305931 -1.406015 -0.040854 -3.313781 1.867509 2.522698 5.543909 -3.218836 -2.887806 0.000000 0.000000 0.000000 0.000000 0.000000 0.000000 -0.000000 0.000000 0.000000 0.792994 1.572610 1.218507 13.199088 12.880804 17.500282 -14.112948 0.944218 -15.722954 0.000000 0.000000 0.000000 0.000000 0.000000 0.000000 0.031298 0.088891 19.647963 -0.000000 0.000000 0.000000 -0.000000 0.000000 0.000000 0.000000 0.000000 0.000000 0.031298 0.088891 19.647963 -0.000000 0.000000 0.000000 3.960732 7.947361 -6.153264 0.000000 0.000000 0.000000
14.148433 44.058998 373.250397 -0.049330 -0.116763 -19.488774 0.007549 0.126531 19.488716 -0.000000 0.000000 0.000000 -0.000000 0.000000 0.000000 0.000000 0.000000 0.000000 -0.000000 0.000000 0.000000 -0.459028 -1.955156 0.048754 -3.714470 2.953325 2.971261 6.425564 -4.567714 -3.471223 0.000000 0.000000 0.000000 0.000000 0.000000 0.000000 -0.000000 0.000000 0.000000 1.064274 2.097968 1.637887 16.386652 18.083892 22.809731 -18.308638 1.195271 -22.201483 0.000000 0.000000 0.000000 0.000000 0.000000 0.000000 0.007549 0.126531 19.488716 -0.000000 0.000000 0.000000 -0.000000 0.000000 0.000000 0.000000 0.000000 0.000000 0.007549 0.126531 19.488716 -0.000000 0.000000 0.000000 5.559999 10.610647 -8.455679 0.000000 0.000000 0.000000
14.203477 44.125808 373.253434 -0.012718 -0.165023 -19.368550 -0.042731 0.159901 19.368592 -0.000000 0.000000 0.000000 -0.000000 0.000000 0.000000 0.000000 0.000000 0.000000 0.069738 0.786447 -0.427583 -0.657343 -3.192002 0.632247 -3.312757 4.158437 2.856890 6.273879 -5.824467 -3.563585 0.000000 0.000000 0.000000 0.000000 0.000000 0.000000 -0.000000 0.000000 0.000000 1.253886 2.439476 1.928617 18.002555 21.887485 26.285061 -21.080647 1.214203 -27.146491 0.000000 0.000000 0.000000 0.000000 0.000000 0.000000 -0.042731 0.159901 19.368592 -0.000000 0.000000 0.000000 -0.000000 0.000000 0.000000 0.000000 0.000000 0.000000 -0.042731 0.159901 19.368592 -0.000000 0.000000 0.000000 6.816917 12.533016 -10.213795 0.000000 0.000000 0.000000
